<svg width="128" height="128" viewBox="0 0 128 128" fill="none" xmlns="http://www.w3.org/2000/svg">
<rect width="128" height="128" fill="white"/>
<path d="M13.075 86.48C15.895 86.48 18.615 87.98 21.235 90.98C22.035 92.56 22.435 94.09 22.435 95.57C22.435 99.05 20.665 101.61 17.125 103.25C15.985 103.75 14.755 104 13.435 104H12.685C11.945 103.98 11.575 103.67 11.575 103.07H11.485C11.485 102.53 11.825 102.25 12.505 102.23H13.195V102.05H13.255C12.015 96.79 11.395 92.88 11.395 90.32H11.305L10.555 90.8C10.035 90.8 9.725 90.45 9.625 89.75C9.625 88.65 10.245 87.69 11.485 86.87C11.985 86.61 12.515 86.48 13.075 86.48ZM13.435 88.25H13.195V89.69C13.195 92.97 13.815 97.09 15.055 102.05H15.145C18.845 101.05 20.695 98.89 20.695 95.57C20.695 92.01 18.625 89.63 14.485 88.43C14.245 88.31 13.895 88.25 13.435 88.25ZM24.813 94.97L25.353 94.67C25.833 94.67 26.183 94.96 26.403 95.54C26.083 97.02 25.923 98.54 25.923 100.1C25.923 100.88 26.153 101.73 26.613 102.65H26.793C27.373 102.65 28.063 100.36 28.863 95.78C29.143 95.54 29.413 95.42 29.673 95.42C30.293 95.42 30.603 96.52 30.603 98.72C30.863 101.14 31.153 102.35 31.473 102.35L31.923 102.17C32.503 102.39 32.793 102.7 32.793 103.1C32.433 103.86 31.933 104.24 31.293 104.24C30.573 104.24 29.883 103.52 29.223 102.08C28.423 103.76 27.613 104.6 26.793 104.6C25.573 104.6 24.723 103.33 24.243 100.79L24.153 99.83V99.53C24.153 97.93 24.373 96.41 24.813 94.97ZM33.6674 89.75C34.7074 89.75 35.3774 91.79 35.6774 95.87L35.8574 96.8C36.7774 94.92 37.5274 93.98 38.1074 93.98C38.1074 93.9 38.3174 93.84 38.7374 93.8H38.8574C40.1774 93.8 41.0174 94.83 41.3774 96.89V96.98C41.3774 98.74 40.4974 100.68 38.7374 102.8C37.9974 103.6 37.1874 104 36.3074 104C35.3074 103.78 34.8074 103.28 34.8074 102.5L33.3074 91.73L32.8574 90.62C32.8574 90.26 33.1274 89.97 33.6674 89.75ZM36.7874 101.93H36.8774C37.9174 101.51 38.8274 100.08 39.6074 97.64V96.5C39.4274 95.88 39.1974 95.57 38.9174 95.57H38.6774C37.7974 96.09 37.1674 98.21 36.7874 101.93ZM43.1303 89.75C44.1703 89.75 44.8403 91.79 45.1403 95.87L45.3203 96.8C46.2403 94.92 46.9903 93.98 47.5703 93.98C47.5703 93.9 47.7803 93.84 48.2003 93.8H48.3203C49.6403 93.8 50.4803 94.83 50.8403 96.89V96.98C50.8403 98.74 49.9603 100.68 48.2003 102.8C47.4603 103.6 46.6503 104 45.7703 104C44.7703 103.78 44.2703 103.28 44.2703 102.5L42.7703 91.73L42.3203 90.62C42.3203 90.26 42.5903 89.97 43.1303 89.75ZM46.2503 101.93H46.3403C47.3803 101.51 48.2903 100.08 49.0703 97.64V96.5C48.8903 95.88 48.6603 95.57 48.3803 95.57H48.1403C47.2603 96.09 46.6303 98.21 46.2503 101.93ZM55.0532 93.23C55.8532 93.25 57.2032 94.65 59.1032 97.43L59.1632 97.94C59.1632 98.5 57.7932 98.93 55.0532 99.23L54.9632 99.32V99.44C55.3832 101.24 55.8232 102.14 56.2832 102.14H56.6432C57.2832 102.14 58.2532 101.45 59.5532 100.07H59.7332C60.1332 100.07 60.4432 100.36 60.6632 100.94C60.6632 101.42 59.8232 102.25 58.1432 103.43C57.7032 103.69 57.1732 103.88 56.5532 104C54.9332 104 53.8032 102.48 53.1632 99.44C52.2432 99.3 51.7832 98.92 51.7832 98.3C51.7832 97.86 52.1232 97.57 52.8032 97.43V97.55L53.1032 97.43V96.68C53.1032 94.38 53.7532 93.23 55.0532 93.23ZM55.2332 95.39H54.9632L54.8432 96.5V97.43H54.9632C56.0832 97.39 56.6432 97.27 56.6432 97.07C56.1232 96.29 55.6532 95.73 55.2332 95.39ZM63.5261 87.47C64.0861 87.67 64.3661 87.98 64.3661 88.4L64.6661 99.83V103.52C64.6661 104.2 64.3761 104.54 63.7961 104.54H63.4061C63.0461 104.3 62.8661 104.02 62.8661 103.7V100.22L62.5961 88.34C62.5961 87.84 62.9061 87.55 63.5261 87.47ZM69.7059 86.48C72.5259 86.48 75.2459 87.98 77.8659 90.98C78.6659 92.56 79.0659 94.09 79.0659 95.57C79.0659 99.05 77.2959 101.61 73.7559 103.25C72.6159 103.75 71.3859 104 70.0659 104H69.3159C68.5759 103.98 68.2059 103.67 68.2059 103.07H68.1159C68.1159 102.53 68.4559 102.25 69.1359 102.23H69.8259V102.05H69.8859C68.6459 96.79 68.0259 92.88 68.0259 90.32H67.9359L67.1859 90.8C66.6659 90.8 66.3559 90.45 66.2559 89.75C66.2559 88.65 66.8759 87.69 68.1159 86.87C68.6159 86.61 69.1459 86.48 69.7059 86.48ZM70.0659 88.25H69.8259V89.69C69.8259 92.97 70.4459 97.09 71.6859 102.05H71.7759C75.4759 101.05 77.3259 98.89 77.3259 95.57C77.3259 92.01 75.2559 89.63 71.1159 88.43C70.8759 88.31 70.5259 88.25 70.0659 88.25ZM81.4438 94.97L81.9838 94.67C82.4638 94.67 82.8138 94.96 83.0338 95.54C82.7138 97.02 82.5538 98.54 82.5538 100.1C82.5538 100.88 82.7838 101.73 83.2438 102.65H83.4238C84.0038 102.65 84.6938 100.36 85.4938 95.78C85.7738 95.54 86.0438 95.42 86.3038 95.42C86.9238 95.42 87.2338 96.52 87.2338 98.72C87.4938 101.14 87.7838 102.35 88.1038 102.35L88.5538 102.17C89.1338 102.39 89.4238 102.7 89.4238 103.1C89.0638 103.86 88.5638 104.24 87.9238 104.24C87.2038 104.24 86.5138 103.52 85.8538 102.08C85.0538 103.76 84.2438 104.6 83.4238 104.6C82.2038 104.6 81.3538 103.33 80.8738 100.79L80.7838 99.83V99.53C80.7838 97.93 81.0038 96.41 81.4438 94.97ZM93.5983 85.79C94.1583 85.91 94.4383 86.19 94.4383 86.63L94.2583 87.95V88.34C94.2583 89.22 94.3583 90.15 94.5583 91.13H94.6183C96.9383 90.43 98.3783 90.08 98.9383 90.08C99.5183 90.24 99.8083 90.53 99.8083 90.95C99.8083 91.63 99.1183 91.97 97.7383 91.97L94.6183 93.08C94.6183 95.78 94.9083 99.45 95.4883 104.09C95.3683 104.63 95.0783 104.9 94.6183 104.9H94.5583C93.8583 104.9 93.5083 104 93.5083 102.2C93.2483 100.86 93.0283 97.95 92.8483 93.47H92.3083C90.4283 93.35 89.4883 92.91 89.4883 92.15C89.4883 91.93 89.6983 91.66 90.1183 91.34H90.4183L91.7983 91.7H92.7583L92.4883 87.95C92.4883 86.51 92.8583 85.79 93.5983 85.79ZM103.782 93.83L105.012 93.65C105.512 93.65 105.792 93.96 105.852 94.58C105.852 95.12 105.202 95.47 103.902 95.63C103.082 96.27 102.672 97.09 102.672 98.09V99.08C103.072 101.28 103.752 102.38 104.712 102.38H105.012C105.572 102.38 106.412 101.85 107.532 100.79H107.712C108.112 100.79 108.432 101.07 108.672 101.63C108.392 102.49 107.492 103.27 105.972 103.97C105.692 104.09 105.342 104.15 104.922 104.15C102.862 104.15 101.522 102.53 100.902 99.29V98.63C100.902 96.29 101.862 94.69 103.782 93.83ZM111.445 87.44C112.005 87.44 112.285 88.12 112.285 89.48L112.645 94.64H112.765L114.265 94.07C115.945 94.07 116.965 95.79 117.325 99.23C117.465 100.21 117.535 101.65 117.535 103.55V105.98C117.535 106.74 117.255 107.12 116.695 107.12H116.575C116.035 107.04 115.765 106.75 115.765 106.25V103.43C115.765 98.91 115.325 96.41 114.445 95.93H114.265C113.665 95.93 113.225 96.85 112.945 98.69V100.37C112.945 103.37 112.695 104.87 112.195 104.87L111.625 104.93C111.065 104.93 110.785 104.1 110.785 102.44C110.845 100.68 110.965 99.24 111.145 98.12L110.515 88.25C110.515 87.73 110.825 87.46 111.445 87.44Z" fill="#FF6D00"/>
<circle cx="64" cy="46" r="30" fill="#FF6D00"/>
<path d="M44.1562 61.625V33.5C44.1562 32.6406 44.4622 31.9049 45.0742 31.293C45.6862 30.681 46.4219 30.375 47.2812 30.375H72.2812C73.1406 30.375 73.8763 30.681 74.4883 31.293C75.1003 31.9049 75.4062 32.6406 75.4062 33.5V52.25C75.4062 53.1094 75.1003 53.8451 74.4883 54.457C73.8763 55.069 73.1406 55.375 72.2812 55.375H50.4062L44.1562 61.625ZM49.0781 52.25H72.2812V33.5H47.2812V54.0078L49.0781 52.25Z" fill="white"/>
<path d="M83.4531 45.9141H69.3906C69.0409 45.9141 68.7541 46.033 68.5029 46.2842C68.2517 46.5354 68.1328 46.8221 68.1328 47.1719V57.7188C68.1328 58.0685 68.2517 58.3552 68.5029 58.6064C68.7541 58.8577 69.0409 58.9766 69.3906 58.9766H81.9023L84.7109 61.7852V47.1719C84.7109 46.8221 84.592 46.5354 84.3408 46.2842C84.0896 46.033 83.8029 45.9141 83.4531 45.9141Z" fill="white" stroke="#FF6D00"/>
</svg>
